<svg width="124" height="124" viewBox="0 0 124 124" xmlns="http://www.w3.org/2000/svg">
  <path fill="#000" d="M63 122a60 60 0 1 0-15.9-1.9 1 1 0 0 1-.5 2 62 62 0 1 1 15.5 1.9 1 1 0 0 1-1-1V71.2a9.2 9.2 0 1 1 1.9 0V122zm-1-52.8a7.2 7.2 0 1 0 0-14.4 7.2 7.2 0 0 0 0 14.4zm-16.3-19a1 1 0 0 1 1.6 1.3 17.2 17.2 0 0 0 0 21 1 1 0 1 1-1.5 1.2 19.2 19.2 0 0 1-.1-23.4zm32.6 23.5a1 1 0 1 1-1.5-1.2 17.1 17.1 0 0 0 0-21 1 1 0 1 1 1.6-1.2 19.1 19.1 0 0 1 0 23.4zM36.1 44a1 1 0 0 1 1.6 1.1 30.7 30.7 0 0 0 0 34.3 1 1 0 1 1-1.6 1A32.7 32.7 0 0 1 36 44zm52 36.5a1 1 0 0 1-1.7-1.1 31 31 0 0 0 .1-34.3 1 1 0 0 1 1.7-1 33 33 0 0 1-.1 36.4z"/>
</svg>